<?xml version="1.0" encoding="UTF-8" standalone="no"?>
<svg
   xmlns:dc="http://purl.org/dc/elements/1.1/"
   xmlns:cc="http://creativecommons.org/ns#"
   xmlns:rdf="http://www.w3.org/1999/02/22-rdf-syntax-ns#"
   xmlns:svg="http://www.w3.org/2000/svg"
   xmlns="http://www.w3.org/2000/svg"
   xmlns:sodipodi="http://sodipodi.sourceforge.net/DTD/sodipodi-0.dtd"
   xmlns:inkscape="http://www.inkscape.org/namespaces/inkscape"
   role="img"
   viewBox="0 0 24 24"
   version="1.1"
   id="svg885"
   sodipodi:docname="css3.svg"
   inkscape:version="1.0.2 (e86c870879, 2021-01-15)">
  <metadata
     id="metadata891">
    <rdf:RDF>
      <cc:Work
         rdf:about="">
        <dc:format>image/svg+xml</dc:format>
        <dc:type
           rdf:resource="http://purl.org/dc/dcmitype/StillImage" />
        <dc:title>CSS3 icon</dc:title>
      </cc:Work>
    </rdf:RDF>
  </metadata>
  <defs
     id="defs889" />
  <sodipodi:namedview
     pagecolor="#ffffff"
     bordercolor="#666666"
     borderopacity="1"
     objecttolerance="10"
     gridtolerance="10"
     guidetolerance="10"
     inkscape:pageopacity="0"
     inkscape:pageshadow="2"
     inkscape:window-width="1220"
     inkscape:window-height="1296"
     id="namedview887"
     showgrid="false"
     inkscape:zoom="20.083333"
     inkscape:cx="12"
     inkscape:cy="11.775934"
     inkscape:window-x="1292"
     inkscape:window-y="96"
     inkscape:window-maximized="0"
     inkscape:current-layer="svg885" />
  <title
     id="title881">CSS3 icon</title>
  <path
     d="M1.5 0h21l-1.91 21.563L11.977 24l-8.565-2.438L1.5 0zm17.09 4.413L5.41 4.41l.213 2.622 10.125.002-.255 2.716h-6.64l.24 2.573h6.182l-.366 3.523-2.91.804-2.956-.81-.188-2.11h-2.61l.29 3.855L12 19.288l5.373-1.53L18.59 4.414z"
     id="path883" />
  <path
     style="fill:#3b4252;stroke-width:0.0497925"
     d="M 7.7055954,22.759158 C 5.3847513,22.095369 3.4738264,21.540217 3.4590954,21.525485 3.4358078,21.502198 1.5435685,0.35160309 1.5435685,0.11459342 1.5435685,0.02847699 1.9609907,0.02489627 12,0.02489627 c 10.10358,0 10.456432,0.0030782 10.456432,0.09121926 0,0.3292379 -1.894584,21.39061247 -1.926681,21.41817547 -0.03789,0.03254 -8.541473,2.445915 -8.584301,2.436284 -0.01108,-0.0025 -1.919011,-0.547628 -4.2398546,-1.211417 z m 7.0197136,-4.217515 c 2.361516,-0.670126 2.655851,-0.764621 2.675386,-0.858922 0.01207,-0.05828 0.280566,-2.974007 0.596652,-6.479401 0.316086,-3.5053947 0.587405,-6.4686727 0.602931,-6.5850627 L 18.628509,4.406639 H 11.998675 5.36884 l 0.027423,0.186722 c 0.015083,0.1026971 0.066288,0.696473 0.1137904,1.3195021 l 0.086367,1.1327801 h 5.0695986 5.069598 l -0.02658,0.1867219 c -0.03693,0.2594898 -0.223302,2.2529413 -0.223446,2.3900415 l -1.18e-4,0.1120332 H 12.148789 8.8121009 l 0.02653,0.186722 c 0.026426,0.1859902 0.2236093,2.2618222 0.2236093,2.3540322 0,0.03089 1.1189528,0.04846 3.0871378,0.04846 2.628114,0 3.087137,0.01047 3.087137,0.07044 0,0.242305 -0.355214,3.391309 -0.385733,3.41955 -0.02063,0.01909 -0.670716,0.208695 -1.444642,0.421347 l -1.407139,0.386641 -1.431036,-0.389963 C 9.7808958,16.017184 9.1205945,15.82812 9.1006297,15.811522 9.0806649,15.794923 9.0292237,15.36747 8.986316,14.861626 8.9434083,14.355781 8.8976983,13.891494 8.8847378,13.829876 L 8.8611734,13.717842 H 7.5426199 c -1.2231719,0 -1.3184392,0.0063 -1.316974,0.08714 0.00687,0.379252 0.2915526,3.757987 0.3189803,3.785859 0.047773,0.04855 5.3055738,1.69466 5.4290688,1.699734 0.054,0.0022 1.292223,-0.3348 2.751614,-0.748929 z"
     id="path893" />
</svg>
