<?xml version="1.0" encoding="UTF-8" standalone="no"?>
<svg
   xmlns:dc="http://purl.org/dc/elements/1.1/"
   xmlns:cc="http://creativecommons.org/ns#"
   xmlns:rdf="http://www.w3.org/1999/02/22-rdf-syntax-ns#"
   xmlns:svg="http://www.w3.org/2000/svg"
   xmlns="http://www.w3.org/2000/svg"
   xmlns:sodipodi="http://sodipodi.sourceforge.net/DTD/sodipodi-0.dtd"
   xmlns:inkscape="http://www.inkscape.org/namespaces/inkscape"
   role="img"
   viewBox="0 0 24 24"
   version="1.1"
   id="svg977"
   sodipodi:docname="git.svg"
   inkscape:version="1.0.2 (e86c870879, 2021-01-15)">
  <metadata
     id="metadata983">
    <rdf:RDF>
      <cc:Work
         rdf:about="">
        <dc:format>image/svg+xml</dc:format>
        <dc:type
           rdf:resource="http://purl.org/dc/dcmitype/StillImage" />
        <dc:title>Git icon</dc:title>
      </cc:Work>
    </rdf:RDF>
  </metadata>
  <defs
     id="defs981" />
  <sodipodi:namedview
     pagecolor="#ffffff"
     bordercolor="#666666"
     borderopacity="1"
     objecttolerance="10"
     gridtolerance="10"
     guidetolerance="10"
     inkscape:pageopacity="0"
     inkscape:pageshadow="2"
     inkscape:window-width="1220"
     inkscape:window-height="1296"
     id="namedview979"
     showgrid="false"
     inkscape:zoom="32.666667"
     inkscape:cx="14.793501"
     inkscape:cy="11.862245"
     inkscape:window-x="1292"
     inkscape:window-y="96"
     inkscape:window-maximized="0"
     inkscape:current-layer="svg977" />
  <title
     id="title973">Git icon</title>
  <path
     d="M23.546 10.93L13.067.452c-.604-.603-1.582-.603-2.188 0L8.708 2.627l2.76 2.76c.645-.215 1.379-.07 1.889.441.516.515.658 1.258.438 1.9l2.658 2.66c.645-.223 1.387-.078 1.9.435.721.72.721 1.884 0 2.604-.719.719-1.881.719-2.6 0-.539-.541-.674-1.337-.404-1.996L12.86 8.955v6.525c.176.086.342.203.488.348.713.721.713 1.883 0 2.6-.719.721-1.889.721-2.609 0-.719-.719-.719-1.879 0-2.598.182-.18.387-.316.605-.406V8.835c-.217-.091-.424-.222-.6-.401-.545-.545-.676-1.342-.396-2.009L7.636 3.7.45 10.881c-.6.605-.6 1.584 0 2.189l10.48 10.477c.604.604 1.582.604 2.186 0l10.43-10.43c.605-.603.605-1.582 0-2.187"
     id="path975" />
  <path
     style="fill:#3b4252;stroke-width:0.0306122"
     d="M 11.663265,23.937947 C 11.225299,23.816568 11.570082,24.143717 5.7327729,18.310763 1.2957666,13.877068 0.2905369,12.857816 0.21491562,12.715936 L 0.12244898,12.542451 V 11.964406 11.386362 L 0.23235862,11.20057 C 0.3173935,11.056827 1.1682691,10.1888 3.9919705,7.365172 l 3.6497024,-3.6496064 1.3369001,1.3600149 1.3369,1.3600149 -0.06484,0.2564179 c -0.120778,0.4776114 -0.04148,0.9847403 0.222517,1.4229604 0.132801,0.2204473 0.452707,0.5227371 0.677432,0.6401283 l 0.175805,0.091837 6.1e-5,3.281368 6.2e-5,3.281368 -0.191327,0.101127 c -0.408273,0.215794 -0.774544,0.695205 -0.895143,1.17165 -0.05926,0.234116 -0.05917,0.656665 1.83e-4,0.890198 0.154259,0.606849 0.611101,1.102625 1.21395,1.317407 0.278339,0.09917 0.772627,0.110782 1.110078,0.02609 l 0.07861,-0.01972 v 2.481724 2.481725 l -0.160714,0.04941 c -0.233566,0.07181 -0.615003,0.08516 -0.818878,0.02866 z"
     id="path1546" />
  <path
     style="fill:#3b4252;stroke-width:0.0306122"
     d="m 12.650644,21.357674 v -2.473959 l 0.160714,-0.06704 c 0.08839,-0.03687 0.250327,-0.134407 0.359854,-0.216745 0.740611,-0.55676 0.94186,-1.628868 0.457398,-2.436681 -0.130385,-0.217408 -0.40105,-0.490324 -0.607178,-0.612228 l -0.155287,-0.09184 -6.1e-4,-3.225306 -6.06e-4,-3.2253063 0.29847,0.2768703 c 0.164158,0.1522788 0.717332,0.6967207 1.229275,1.209871 l 0.930807,0.933001 -0.05674,0.194006 c -0.08975,0.306871 -0.07742,0.77012 0.02879,1.081762 0.25518,0.748729 0.876327,1.221816 1.656135,1.261369 0.677829,0.03438 1.254749,-0.246177 1.624705,-0.790098 0.242271,-0.356196 0.303867,-0.569625 0.303867,-1.052904 0,-0.455691 -0.03686,-0.603243 -0.235832,-0.944102 -0.393597,-0.674263 -1.230676,-1.037586 -1.982361,-0.860417 L 16.46426,10.364547 15.140567,9.0394166 13.816875,7.7142857 13.860835,7.5306122 C 14.076184,6.6307901 13.547737,5.6866641 12.650644,5.3684841 12.484286,5.3094808 12.388929,5.2977471 12.069011,5.2969145 11.832396,5.2962992 11.645808,5.310814 11.580106,5.3349484 L 11.473855,5.3739787 10.103077,4.003455 8.7323,2.6329317 9.8725943,1.4914146 C 10.499756,0.86358031 11.075991,0.30911363 11.153115,0.25926651 c 0.32513,-0.21013845 0.798607,-0.29340856 1.152366,-0.20266598 0.480495,0.1232517 0.08344,-0.25114391 5.940859,5.60180237 3.0022,2.9999069 5.414085,5.4337641 5.475022,5.5248991 0.149265,0.223236 0.231084,0.467412 0.248359,0.74118 0.01845,0.292366 -0.02947,0.522713 -0.167027,0.802944 -0.104424,0.212729 -0.321673,0.434522 -5.454383,5.568473 -4.814664,4.815827 -5.552427,5.535734 -5.673048,5.535734 -0.01354,0 -0.02462,-1.113282 -0.02462,-2.473959 z"
     id="path1548" />
</svg>
