<?xml version="1.0" encoding="UTF-8" standalone="no"?>
<svg
   xmlns:dc="http://purl.org/dc/elements/1.1/"
   xmlns:cc="http://creativecommons.org/ns#"
   xmlns:rdf="http://www.w3.org/1999/02/22-rdf-syntax-ns#"
   xmlns:svg="http://www.w3.org/2000/svg"
   xmlns="http://www.w3.org/2000/svg"
   xmlns:sodipodi="http://sodipodi.sourceforge.net/DTD/sodipodi-0.dtd"
   xmlns:inkscape="http://www.inkscape.org/namespaces/inkscape"
   role="img"
   viewBox="0 0 24 24"
   version="1.1"
   id="svg1620"
   sodipodi:docname="github.svg"
   inkscape:version="1.0.2 (e86c870879, 2021-01-15)">
  <metadata
     id="metadata1626">
    <rdf:RDF>
      <cc:Work
         rdf:about="">
        <dc:format>image/svg+xml</dc:format>
        <dc:type
           rdf:resource="http://purl.org/dc/dcmitype/StillImage" />
        <dc:title>GitHub icon</dc:title>
      </cc:Work>
    </rdf:RDF>
  </metadata>
  <defs
     id="defs1624" />
  <sodipodi:namedview
     pagecolor="#ffffff"
     bordercolor="#666666"
     borderopacity="1"
     objecttolerance="10"
     gridtolerance="10"
     guidetolerance="10"
     inkscape:pageopacity="0"
     inkscape:pageshadow="2"
     inkscape:window-width="1220"
     inkscape:window-height="1296"
     id="namedview1622"
     showgrid="false"
     inkscape:zoom="32.666667"
     inkscape:cx="17.511502"
     inkscape:cy="11.862245"
     inkscape:window-x="1292"
     inkscape:window-y="96"
     inkscape:window-maximized="0"
     inkscape:current-layer="svg1620" />
  <title
     id="title1616">GitHub icon</title>
  <path
     d="M12 .297c-6.63 0-12 5.373-12 12 0 5.303 3.438 9.8 8.205 11.385.6.113.82-.258.82-.577 0-.285-.01-1.04-.015-2.04-3.338.724-4.042-1.61-4.042-1.61C4.422 18.07 3.633 17.7 3.633 17.7c-1.087-.744.084-.729.084-.729 1.205.084 1.838 1.236 1.838 1.236 1.07 1.835 2.809 1.305 3.495.998.108-.776.417-1.305.76-1.605-2.665-.3-5.466-1.332-5.466-5.93 0-1.31.465-2.38 1.235-3.22-.135-.303-.54-1.523.105-3.176 0 0 1.005-.322 3.3 1.23.96-.267 1.98-.399 3-.405 1.02.006 2.04.138 3 .405 2.28-1.552 3.285-1.23 3.285-1.23.645 1.653.24 2.873.12 3.176.765.84 1.23 1.91 1.23 3.22 0 4.61-2.805 5.625-5.475 5.92.42.36.81 1.096.81 2.22 0 1.606-.015 2.896-.015 3.286 0 .315.21.69.825.57C20.565 22.092 24 17.592 24 12.297c0-6.627-5.373-12-12-12"
     id="path1618" />
  <path
     style="fill:#3b4252;stroke-width:0.0306122"
     d="M 7.7908163,23.51373 C 6.5098736,23.025597 5.3721566,22.360165 4.2857143,21.463654 3.9529332,21.189049 3.1413549,20.377401 2.8425919,20.020408 2.1945149,19.246018 1.7215632,18.516379 1.2551638,17.571429 0.70614903,16.459095 0.38619654,15.480551 0.1831223,14.292694 0.1277942,13.96906 0.122449,13.793035 0.122449,12.294654 c 0,-1.608506 0.001585,-1.652157 0.0752111,-2.070938 C 1.014418,5.5780289 4.5096288,1.8222787 9.0843722,0.67457213 10.025056,0.43857457 10.700624,0.3523023 11.778061,0.33057945 l 0.864796,-0.0174357 V 3.2119874 6.110831 L 12.283163,6.0906077 C 11.735226,6.0598004 10.633681,6.1419 9.9795918,6.2622958 9.8869898,6.2793407 9.6238439,6.335951 9.3948233,6.3880965 L 8.978422,6.4829063 8.7978845,6.3611627 C 7.7201954,5.6344338 6.4425,5.1545186 5.8090938,5.2385428 L 5.6636287,5.2578395 5.5691526,5.552389 c -0.16557,0.5161999 -0.2147697,0.8044809 -0.2331264,1.3659783 -0.018741,0.5732645 0.00645,0.8141404 0.131996,1.2620866 L 5.5471968,8.4629486 5.4184926,8.6090253 C 5.2552056,8.7943528 4.9513589,9.2474204 4.832655,9.482572 c -0.3945557,0.78161 -0.5419846,1.600452 -0.4851055,2.694345 0.067988,1.307541 0.3484038,2.304683 0.8799921,3.129205 0.6360411,0.986534 1.6697682,1.675373 3.0530547,2.034449 0.377217,0.09792 1.1772227,0.246164 1.328423,0.246164 0.046672,0 0.093262,0.0084 0.1035343,0.01868 0.010272,0.01027 -0.051532,0.110144 -0.1373416,0.221938 -0.2490691,0.324492 -0.4157387,0.715258 -0.5132375,1.20331 L 9.027311,19.204176 8.8070229,19.28302 C 8.0826367,19.542286 7.4873923,19.568801 6.9041927,19.36778 6.4002119,19.194066 5.9875469,18.832978 5.5683377,18.198891 5.048779,17.413015 4.3677848,16.967239 3.6887755,16.968536 c -0.3465536,6.61e-4 -0.5357143,0.08597 -0.5357143,0.241602 0,0.100907 0.2347402,0.344223 0.5016218,0.519946 0.5355067,0.352595 0.9352741,0.880347 1.2744734,1.682492 0.1804442,0.426719 0.3474279,0.690795 0.5969183,0.943997 0.7333013,0.744212 1.8638296,1.013416 3.2366804,0.770728 L 9,21.085361 v 1.080327 c 0,0.688873 -0.011798,1.111552 -0.03256,1.166503 -0.044308,0.117272 -0.1764116,0.253261 -0.2955386,0.304232 -0.1973565,0.08444 -0.4182388,0.05368 -0.8810851,-0.122693 z"
     id="path2189" />
  <path
     style="fill:#3b4252;stroke-width:0.0306122"
     d="m 15.327477,23.633919 c -0.06473,-0.02308 -0.152606,-0.07413 -0.195272,-0.113452 -0.171725,-0.158252 -0.169431,-0.12869 -0.16358,-2.108396 0.0056,-1.889386 -0.0072,-2.160507 -0.122937,-2.614057 -0.114902,-0.450139 -0.338253,-0.877433 -0.576404,-1.102722 l -0.09559,-0.09042 0.470658,-0.06761 c 1.170141,-0.168082 2.112529,-0.493102 2.849481,-0.98276 0.319732,-0.212442 0.815042,-0.666113 1.024776,-0.938629 0.734689,-0.95461 1.104967,-2.249212 1.104245,-3.860772 C 19.622439,10.820769 19.488571,10.210676 19.125343,9.4877213 18.965677,9.1699289 18.762358,8.8605762 18.553298,8.6173469 L 18.408583,8.4489796 18.46483,8.2837071 C 18.718815,7.5374124 18.689588,6.5114614 18.387572,5.5717179 L 18.289283,5.2658844 18.16825,5.2438387 C 17.897836,5.1945842 17.24702,5.3191748 16.746241,5.5160648 16.412823,5.6471538 15.667599,6.03852 15.31768,6.2662965 L 14.986858,6.4816423 14.573159,6.3874644 C 13.943073,6.2440261 13.486001,6.1718189 12.8814,6.1202036 L 12.644155,6.0999496 V 3.2079984 0.31604707 l 0.114796,0.0165112 c 0.06314,0.009081 0.225,0.024896 0.359694,0.0351441 0.428464,0.0325995 1.223331,0.16660945 1.732256,0.29204824 2.486179,0.61278839 4.700763,1.99413909 6.33407,3.95088689 1.498473,1.7952119 2.393131,3.8520744 2.714776,6.2414035 0.06963,0.517233 0.07949,2.241419 0.01575,2.755102 -0.140797,1.134787 -0.412794,2.202781 -0.818612,3.214286 -0.1732,0.431699 -0.640438,1.338126 -0.923118,1.790816 -1.424147,2.280663 -3.697436,4.106289 -6.154368,4.942433 -0.388671,0.132272 -0.505624,0.145666 -0.691924,0.07924 z"
     id="path2209" />
</svg>
