<?xml version="1.0" encoding="UTF-8" standalone="no"?>
<svg
   xmlns:dc="http://purl.org/dc/elements/1.1/"
   xmlns:cc="http://creativecommons.org/ns#"
   xmlns:rdf="http://www.w3.org/1999/02/22-rdf-syntax-ns#"
   xmlns:svg="http://www.w3.org/2000/svg"
   xmlns="http://www.w3.org/2000/svg"
   xmlns:sodipodi="http://sodipodi.sourceforge.net/DTD/sodipodi-0.dtd"
   xmlns:inkscape="http://www.inkscape.org/namespaces/inkscape"
   role="img"
   viewBox="0 0 24 24"
   version="1.1"
   id="svg2288"
   sodipodi:docname="html5.svg"
   inkscape:version="1.0.2 (e86c870879, 2021-01-15)">
  <metadata
     id="metadata2294">
    <rdf:RDF>
      <cc:Work
         rdf:about="">
        <dc:format>image/svg+xml</dc:format>
        <dc:type
           rdf:resource="http://purl.org/dc/dcmitype/StillImage" />
        <dc:title>HTML5 icon</dc:title>
      </cc:Work>
    </rdf:RDF>
  </metadata>
  <defs
     id="defs2292" />
  <sodipodi:namedview
     pagecolor="#ffffff"
     bordercolor="#666666"
     borderopacity="1"
     objecttolerance="10"
     gridtolerance="10"
     guidetolerance="10"
     inkscape:pageopacity="0"
     inkscape:pageshadow="2"
     inkscape:window-width="1220"
     inkscape:window-height="1296"
     id="namedview2290"
     showgrid="false"
     inkscape:zoom="22.627417"
     inkscape:cx="13.929807"
     inkscape:cy="19.814555"
     inkscape:window-x="1292"
     inkscape:window-y="96"
     inkscape:window-maximized="0"
     inkscape:current-layer="svg2288" />
  <title
     id="title2284">HTML5 icon</title>
  <path
     d="M1.5 0h21l-1.91 21.563L11.977 24l-8.564-2.438L1.5 0zm7.031 9.75l-.232-2.718 10.059.003.23-2.622L5.412 4.41l.698 8.01h9.126l-.326 3.426-2.91.804-2.955-.81-.188-2.11H6.248l.33 4.171L12 19.351l5.379-1.443.744-8.157H8.531z"
     id="path2286" />
  <path
     style="fill:#3b4252;stroke-width:0.0306122"
     d="M 7.6989796,22.767973 C 5.3586735,22.101377 3.4401409,21.553424 3.435574,21.550299 3.4254432,21.543367 1.5306122,0.1985952 1.5306122,0.09140646 V 0.01530612 H 7.0867347 12.642857 V 2.2040816 4.3928571 H 9.0158917 5.3889263 l 0.016154,0.1301021 c 0.015689,0.1263615 0.6867569,7.8399788 0.6867569,7.8939538 0,0.01538 1.4076227,0.02697 3.2755102,0.02697 h 3.2755106 v 2.004247 2.004246 l -0.17602,0.04952 c -0.09681,0.02723 -0.240501,0.06792 -0.319311,0.09041 -0.141995,0.04052 -0.156542,0.03727 -1.607144,-0.359341 C 9.7352647,16.012835 9.0726828,15.829782 9.0679793,15.826182 9.0600993,15.820182 8.8785075,13.854309 8.8778448,13.76786 8.8776149,13.73785 8.5937215,13.7296 7.561225,13.7296 H 6.244898 l 1.53e-4,0.08418 c 9.19e-5,0.0463 0.068967,0.951139 0.1530612,2.010753 0.084104,1.059613 0.1529082,1.962589 0.1529082,2.006612 v 0.08004 l 2.7241096,0.728481 2.72411,0.728482 0.301336,-0.07948 c 0.165735,-0.04372 0.310548,-0.07948 0.321808,-0.07948 0.01126,0 0.02047,1.031077 0.02047,2.291283 v 2.291283 l -0.334806,0.09647 c -0.184144,0.05306 -0.339118,0.09541 -0.344388,0.09411 -0.0053,-0.0013 -1.924377,-0.54776 -4.2646834,-1.214356 z"
     id="path2858" />
  <path
     style="fill:#3b4252;stroke-width:0.0306122"
     d="m 12.652478,21.493605 v -2.300288 l 2.343811,-0.627271 c 1.289095,-0.344999 2.355859,-0.634453 2.370585,-0.643231 0.02021,-0.01205 0.766417,-7.9426786 0.765399,-8.1345497 C 18.132111,9.757819 17.165635,9.75 13.402478,9.75 H 8.6728863 V 8.4030612 7.0561224 h 4.8520407 c 3.861174,0 4.852061,-0.00781 4.852136,-0.038265 6.1e-5,-0.021046 0.04827,-0.5814021 0.107143,-1.245236 0.05888,-0.6638339 0.107048,-1.2458492 0.107048,-1.2933673 V 4.3928571 H 15.621866 12.652478 V 2.2040816 0.01530612 h 4.270408 4.270408 l 1.54e-4,7.27806118 1.53e-4,7.2780617 -0.309149,3.489795 c -0.170031,1.919388 -0.311303,3.490809 -0.313937,3.492047 -0.0026,0.0012 -1.678514,0.474941 -3.724177,1.052675 -2.045664,0.577733 -3.826148,1.081367 -3.956633,1.119185 l -0.237245,0.06876 v -2.300288 z"
     id="path2860" />
  <path
     style="fill:#3b4252;stroke-width:0.0306122"
     d="m 12.652478,14.452255 v -2.008377 h 1.284272 1.284272 l -0.01609,0.145408 c -0.0089,0.07997 -0.08179,0.837746 -0.162086,1.683936 -0.08029,0.846191 -0.152434,1.544971 -0.160308,1.552845 -0.0079,0.0079 -0.494579,0.146858 -1.081567,0.308854 -0.586988,0.161996 -1.08553,0.301552 -1.10787,0.310124 -0.0335,0.01285 -0.04062,-0.336618 -0.04062,-1.99279 z"
     id="path2862" />
  <path
     style="fill:#3b4252;stroke-width:0.0306122"
     d="M 8.5372114,9.619898 C 8.5278738,9.5483418 8.4787067,8.980102 8.4279511,8.3571429 8.3771955,7.7341837 8.3292336,7.1866071 8.3213691,7.1403061 8.3070945,7.0562668 8.3073837,7.0561224 8.4899781,7.0561224 H 8.6728863 V 8.4030612 C 8.6728863,9.715402 8.6713663,9.75 8.6135373,9.75 8.5667863,9.75 8.5505843,9.722383 8.5372114,9.619898 Z"
     id="path2882" />
  <path
     style="fill:#e34f26;stroke-width:0.0306122;fill-opacity:1"
     d="m 21.198194,7.2168367 -0.0049,-7.20153058 h 0.642858 c 0.353571,0 0.642857,0.01036279 0.642857,0.02302841 0,0.03537677 -1.249751,14.15097147 -1.263678,14.27288947 -0.0067,0.05893 -0.01444,-3.133545 -0.01714,-7.0943873 z"
     id="path2884" />
  <path
     style="fill:#3b4252;fill-opacity:1;stroke-width:0.0432923"
     d="m 21.236576,12.555527 c -0.01771,-0.509818 -0.0322,-3.5343225 -0.0322,-6.7211224 V 0.04022334 h 0.630853 0.630853 l -0.02635,0.22728432 c -0.01449,0.12500638 -0.277797,3.08132604 -0.585124,6.56959924 -0.307327,3.4882731 -0.564866,6.4105001 -0.572309,6.4938381 -0.0074,0.08334 -0.02802,-0.265601 -0.04573,-0.775418 z"
     id="path2888" />
  <path
     style="fill:#3b4252;fill-opacity:1;stroke-width:0.0078125"
     d="m 21.217679,14.095727 c -0.003,-0.04512 -0.0066,-1.048828 -0.008,-2.230469 -0.0014,-1.18164 -0.0017,-1.9392574 -5.24e-4,-1.683593 0.0045,1.004993 0.01957,2.268038 0.03037,2.539062 0.01438,0.360527 0.02664,0.575453 0.03455,0.605469 0.0062,0.02338 0.0062,0.02339 0.01069,0.0039 0.0025,-0.01074 0.119101,-1.323828 0.259154,-2.917969 0.37107,-4.2236776 0.49789,-5.6558377 0.501155,-5.6595048 0.0016,-0.00179 0.0054,-7.639e-4 0.0084,0.00228 0.003,0.00305 -0.03056,0.4140801 -0.07467,0.9134114 -0.228744,2.589218 -0.748933,8.4503174 -0.753504,8.4899064 -0.0012,0.01074 -0.0047,-0.01738 -0.0077,-0.0625 z"
     id="path2890" />
</svg>
