<?xml version="1.0" encoding="UTF-8" standalone="no"?>
<svg
   xmlns:dc="http://purl.org/dc/elements/1.1/"
   xmlns:cc="http://creativecommons.org/ns#"
   xmlns:rdf="http://www.w3.org/1999/02/22-rdf-syntax-ns#"
   xmlns:svg="http://www.w3.org/2000/svg"
   xmlns="http://www.w3.org/2000/svg"
   xmlns:sodipodi="http://sodipodi.sourceforge.net/DTD/sodipodi-0.dtd"
   xmlns:inkscape="http://www.inkscape.org/namespaces/inkscape"
   role="img"
   viewBox="0 0 24 24"
   version="1.1"
   id="svg2975"
   sodipodi:docname="linux.svg"
   inkscape:version="1.0.2 (e86c870879, 2021-01-15)">
  <metadata
     id="metadata2981">
    <rdf:RDF>
      <cc:Work
         rdf:about="">
        <dc:format>image/svg+xml</dc:format>
        <dc:type
           rdf:resource="http://purl.org/dc/dcmitype/StillImage" />
        <dc:title>Linux icon</dc:title>
      </cc:Work>
    </rdf:RDF>
  </metadata>
  <defs
     id="defs2979" />
  <sodipodi:namedview
     pagecolor="#ffffff"
     bordercolor="#666666"
     borderopacity="1"
     objecttolerance="10"
     gridtolerance="10"
     guidetolerance="10"
     inkscape:pageopacity="0"
     inkscape:pageshadow="2"
     inkscape:window-width="1220"
     inkscape:window-height="1296"
     id="namedview2977"
     showgrid="false"
     inkscape:zoom="16.333333"
     inkscape:cx="10.416909"
     inkscape:cy="14.310065"
     inkscape:window-x="1292"
     inkscape:window-y="96"
     inkscape:window-maximized="0"
     inkscape:current-layer="svg2975" />
  <title
     id="title2971">Linux icon</title>
  <path
     d="M12.504 0c-.155 0-.315.008-.48.021-4.226.333-3.105 4.807-3.17 6.298-.076 1.092-.3 1.953-1.05 3.02-.885 1.051-2.127 2.75-2.716 4.521-.278.832-.41 1.684-.287 2.489a.424.424 0 00-.11.135c-.26.268-.45.6-.663.839-.199.199-.485.267-.797.4-.313.136-.658.269-.864.68-.09.189-.136.394-.132.602 0 .199.027.4.055.536.058.399.116.728.04.97-.249.68-.28 1.145-.106 1.484.174.334.535.47.94.601.81.2 1.91.135 2.774.6.926.466 1.866.67 2.616.47.526-.116.97-.464 1.208-.946.587-.003 1.23-.269 2.26-.334.699-.058 1.574.267 2.577.2.025.134.063.198.114.333l.003.003c.391.778 1.113 1.132 1.884 1.071.771-.06 1.592-.536 2.257-1.306.631-.765 1.683-1.084 2.378-1.503.348-.199.629-.469.649-.853.023-.4-.2-.811-.714-1.376v-.097l-.003-.003c-.17-.2-.25-.535-.338-.926-.085-.401-.182-.786-.492-1.046h-.003c-.059-.054-.123-.067-.188-.135a.357.357 0 00-.19-.064c.431-1.278.264-2.55-.173-3.694-.533-1.41-1.465-2.638-2.175-3.483-.796-1.005-1.576-1.957-1.56-3.368.026-2.152.236-6.133-3.544-6.139zm.529 3.405h.013c.213 0 .396.062.584.198.19.135.33.332.438.533.105.259.158.459.166.724 0-.02.006-.04.006-.06v.105a.086.086 0 01-.004-.021l-.004-.024a1.807 1.807 0 01-.15.706.953.953 0 01-.213.335.71.71 0 00-.088-.042c-.104-.045-.198-.064-.284-.133a1.312 1.312 0 00-.22-.066c.05-.06.146-.133.183-.198.053-.128.082-.264.088-.402v-.02a1.21 1.21 0 00-.061-.4c-.045-.134-.101-.2-.183-.333-.084-.066-.167-.132-.267-.132h-.016c-.093 0-.176.03-.262.132a.8.8 0 00-.205.334 1.18 1.18 0 00-.09.4v.019c.002.089.008.179.02.267-.193-.067-.438-.135-.607-.202a1.635 1.635 0 01-.018-.2v-.02a1.772 1.772 0 01.15-.768c.082-.22.232-.406.43-.533a.985.985 0 01.594-.2zm-2.962.059h.036c.142 0 .27.048.399.135.146.129.264.288.344.465.09.199.14.4.153.667v.004c.007.134.006.2-.002.266v.08c-.03.007-.056.018-.083.024-.152.055-.274.135-.393.2.012-.09.013-.18.003-.267v-.015c-.012-.133-.04-.2-.082-.333a.613.613 0 00-.166-.267.248.248 0 00-.183-.064h-.021c-.071.006-.13.04-.186.132a.552.552 0 00-.12.27.944.944 0 00-.023.33v.015c.012.135.037.2.08.334.046.134.098.2.166.268.01.009.02.018.034.024-.07.057-.117.07-.176.136a.304.304 0 01-.131.068 2.62 2.62 0 01-.275-.402 1.772 1.772 0 01-.155-.667 1.759 1.759 0 01.08-.668 1.43 1.43 0 01.283-.535c.128-.133.26-.2.418-.2zm1.37 1.706c.332 0 .733.065 1.216.399.293.2.523.269 1.052.468h.003c.255.136.405.266.478.399v-.131a.571.571 0 01.016.47c-.123.31-.516.643-1.063.842v.002c-.268.135-.501.333-.775.465-.276.135-.588.292-1.012.267a1.139 1.139 0 01-.448-.067 3.566 3.566 0 01-.322-.198c-.195-.135-.363-.332-.612-.465v-.005h-.005c-.4-.246-.616-.512-.686-.71-.07-.268-.005-.47.193-.6.224-.135.38-.271.483-.336.104-.074.143-.102.176-.131h.002v-.003c.169-.202.436-.47.839-.601.139-.036.294-.065.466-.065zm2.8 2.142c.358 1.417 1.196 3.475 1.735 4.473.286.534.855 1.659 1.102 3.024.156-.005.33.018.513.064.646-1.671-.546-3.467-1.089-3.966-.22-.2-.232-.335-.123-.335.59.534 1.365 1.572 1.646 2.757.13.535.16 1.104.021 1.67.067.028.135.06.205.067 1.032.534 1.413.938 1.23 1.537v-.043c-.06-.003-.12 0-.18 0h-.016c.151-.467-.182-.825-1.065-1.224-.915-.4-1.646-.336-1.77.465-.008.043-.013.066-.018.135-.068.023-.139.053-.209.064-.43.268-.662.669-.793 1.187-.13.533-.17 1.156-.205 1.869v.003c-.02.334-.17.838-.319 1.35-1.5 1.072-3.58 1.538-5.348.334a2.645 2.645 0 00-.402-.533 1.45 1.45 0 00-.275-.333c.182 0 .338-.03.465-.067a.615.615 0 00.314-.334c.108-.267 0-.697-.345-1.163-.345-.467-.931-.995-1.788-1.521-.63-.4-.986-.87-1.15-1.396-.165-.534-.143-1.085-.015-1.645.245-1.07.873-2.11 1.274-2.763.107-.065.037.135-.408.974-.396.751-1.14 2.497-.122 3.854a8.123 8.123 0 01.647-2.876c.564-1.278 1.743-3.504 1.836-5.268.048.036.217.135.289.202.218.133.38.333.59.465.21.201.477.335.876.335.039.003.075.006.11.006.412 0 .73-.134.997-.268.29-.134.52-.334.74-.4h.005c.467-.135.835-.402 1.044-.7zm2.185 8.958c.037.6.343 1.245.882 1.377.588.134 1.434-.333 1.791-.765l.211-.01c.315-.007.577.01.847.268l.003.003c.208.199.305.53.391.876.085.4.154.78.409 1.066.486.527.645.906.636 1.14l.003-.007v.018l-.003-.012c-.015.262-.185.396-.498.595-.63.401-1.746.712-2.457 1.57-.618.737-1.37 1.14-2.036 1.191-.664.053-1.237-.2-1.574-.898l-.005-.003c-.21-.4-.12-1.025.056-1.69.176-.668.428-1.344.463-1.897.037-.714.076-1.335.195-1.814.12-.465.308-.797.641-.984l.045-.022zm-10.814.049h.01c.053 0 .105.005.157.014.376.055.706.333 1.023.752l.91 1.664.003.003c.243.533.754 1.064 1.189 1.637.434.598.77 1.131.729 1.57v.006c-.057.744-.48 1.148-1.125 1.294-.645.135-1.52.002-2.395-.464-.968-.536-2.118-.469-2.857-.602-.369-.066-.61-.2-.723-.4-.11-.2-.113-.602.123-1.23v-.004l.002-.003c.117-.334.03-.752-.027-1.118-.055-.401-.083-.71.043-.94.16-.334.396-.4.69-.533.294-.135.64-.202.915-.47h.002v-.002c.256-.268.445-.601.668-.838.19-.201.38-.336.663-.336zm7.159-9.074c-.435.201-.945.535-1.488.535-.542 0-.97-.267-1.28-.466-.154-.134-.28-.268-.373-.335-.164-.134-.144-.333-.074-.333.109.016.129.134.199.2.096.066.215.2.36.333.292.2.68.467 1.167.467.485 0 1.053-.267 1.398-.466.195-.135.445-.334.648-.467.156-.136.149-.267.279-.267.128.016.034.134-.147.332a8.097 8.097 0 01-.69.468zm-1.082-1.583V5.64c-.006-.02.013-.042.029-.05.074-.043.18-.027.26.004.063 0 .16.067.15.135-.006.049-.085.066-.135.066-.055 0-.092-.043-.141-.068-.052-.018-.146-.008-.163-.065zm-.551 0c-.02.058-.113.049-.166.066-.047.025-.086.068-.14.068-.05 0-.13-.02-.136-.068-.01-.066.088-.133.15-.133.08-.031.184-.047.259-.005.019.009.036.03.03.05v.02h.003z"
     id="path2973" />
  <path
     style="fill:#3b4252;stroke-width:0.0306122"
     d="m 16.01343,23.939789 c -0.523223,-0.119071 -1.010537,-0.504369 -1.254572,-0.991937 -0.07046,-0.140779 -0.128113,-0.27994 -0.128113,-0.309246 0,-0.04752 -0.05051,-0.05524 -0.466837,-0.07135 -0.265407,-0.01027 -0.697986,-0.05425 -1.002551,-0.101919 -0.899145,-0.140746 -1.387209,-0.118693 -2.540817,0.11481 -0.244132,0.04941 -0.541291,0.09818 -0.6603534,0.108368 l -0.2164763,0.01852 -0.071264,0.134333 C 9.5516074,23.069158 9.2337026,23.359081 8.9548995,23.495762 8.1835009,23.873937 7.233163,23.780248 6.0013186,23.204585 5.4416944,22.943062 5.0969282,22.855378 4.1357847,22.730124 3.3521676,22.628006 3.159118,22.588664 2.8714164,22.472456 2.1172598,22.167838 1.9705088,21.675816 2.3135455,20.602041 c 0.087771,-0.274741 0.086369,-0.46545 -0.00779,-1.059958 -0.030197,-0.190656 -0.044555,-0.424826 -0.03723,-0.607198 0.010424,-0.259528 0.024442,-0.322285 0.1114775,-0.499079 0.1721575,-0.349702 0.3982362,-0.513248 1.0892292,-0.787952 0.1833611,-0.07289 0.3899938,-0.17549 0.4591837,-0.227988 0.06919,-0.0525 0.2428918,-0.248082 0.386004,-0.43463 0.1431123,-0.186549 0.3110829,-0.400061 0.373268,-0.474472 L 4.8007498,16.375473 4.783392,15.932634 C 4.7730472,15.668716 4.7804151,15.372298 4.8016279,15.19898 5.0044981,13.541445 5.9697381,11.630583 7.660776,9.5387957 8.2773345,8.7761226 8.6495426,7.9363586 8.7950904,6.9795918 8.8786438,6.4303485 8.8832151,6.202271 8.8288358,5.2959184 8.740064,3.8163389 8.7990397,2.9232625 9.0328906,2.2058978 9.4905969,0.8018306 10.537701,0.10078951 12.288908,0.02598 c 1.449491,-0.0619206 2.485671,0.45632694 3.100158,1.5505506 0.318992,0.5680321 0.542744,1.4693433 0.616986,2.4853283 0.01807,0.2472878 0.03291,0.8947368 0.03298,1.4387755 1.22e-4,1.0748715 0.02546,1.3429524 0.168728,1.7857733 0.215106,0.6648783 0.576276,1.2272553 1.62149,2.5248168 0.835028,1.0366305 1.365081,1.8722855 1.770862,2.7918535 0.569572,1.290746 0.723532,2.500634 0.460831,3.621412 -0.04341,0.185204 -0.0861,0.367729 -0.09487,0.405612 -0.01006,0.04349 -0.0017,0.06888 0.02273,0.06888 0.06428,0 0.351471,0.20447 0.458669,0.326561 0.152203,0.17335 0.234722,0.383817 0.381413,0.972796 0.08457,0.33954 0.168356,0.600816 0.227987,0.710913 0.05185,0.09574 0.09428,0.193708 0.09428,0.217709 0,0.024 0.06418,0.114539 0.142615,0.201196 0.193341,0.2136 0.422088,0.567945 0.498532,0.772261 0.08126,0.217181 0.08352,0.530902 0.0051,0.703626 -0.140017,0.308273 -0.342074,0.455182 -1.273763,0.926116 -0.974698,0.492672 -1.160792,0.62194 -1.744898,1.212075 -0.665208,0.672072 -1.126452,0.978308 -1.734907,1.151861 -0.293169,0.08362 -0.770654,0.104798 -1.030367,0.0457 z m 0.941889,-0.402147 c 0.262042,-0.06402 0.720712,-0.2802 0.977003,-0.460474 0.111938,-0.07874 0.430821,-0.372625 0.708627,-0.653085 0.603213,-0.608974 0.721059,-0.690686 1.745589,-1.21035 0.778328,-0.394786 1.06208,-0.584071 1.169364,-0.78006 0.133269,-0.243458 -0.0034,-0.650671 -0.370487,-1.103662 -0.408125,-0.50367 -0.459854,-0.611392 -0.616631,-1.284093 -0.108069,-0.463699 -0.203589,-0.688249 -0.370424,-0.870792 -0.203364,-0.222513 -0.385356,-0.297492 -0.768085,-0.316443 l -0.297408,-0.01472 -0.166543,0.15221 c -0.588185,0.537569 -1.370547,0.785956 -1.810069,0.574669 -0.312407,-0.15018 -0.585749,-0.573076 -0.680161,-1.052296 -0.03024,-0.153491 -0.06362,-0.248133 -0.08751,-0.248133 -0.02124,0 -0.113193,0.06815 -0.204333,0.15145 -0.39167,0.357964 -0.549029,0.934348 -0.635609,2.328142 -0.03725,0.59969 -0.08512,0.852179 -0.304496,1.606123 -0.466811,1.604314 -0.469372,2.070608 -0.0147,2.675458 0.164336,0.218615 0.404906,0.38962 0.680019,0.483379 0.256623,0.08746 0.737997,0.0979 1.045849,0.02268 z M 8.577452,23.251886 C 8.8810738,23.174233 9.0346664,23.093105 9.2327674,22.90575 9.5202994,22.633814 9.6601254,22.251501 9.6344249,21.807538 9.6230053,21.610271 9.6000026,21.528883 9.4921324,21.304076 9.3091171,20.922662 9.044174,20.532544 8.5267915,19.882653 7.9873814,19.205092 7.905929,19.077527 7.2977178,17.957769 6.7945015,17.031313 6.7587966,16.975092 6.5291788,16.747636 6.2423683,16.463525 5.9164952,16.30102 5.6335734,16.30102 c -0.3431672,0 -0.5775816,0.164807 -0.9682944,0.680764 -0.4328748,0.571634 -0.5311796,0.653378 -1.0199041,0.848085 -0.6754416,0.269095 -0.8511748,0.387912 -0.9897068,0.669163 -0.062524,0.126938 -0.070395,0.18516 -0.067039,0.495866 0.00209,0.193622 0.026143,0.482908 0.053448,0.642857 0.07297,0.427451 0.065403,0.708978 -0.026305,0.978611 -0.2274771,0.66881 -0.2221109,1.094354 0.016672,1.32213 0.2121461,0.202367 0.4404778,0.260746 1.4168837,0.362267 1.0602806,0.110242 1.3726161,0.188816 2.0712123,0.521054 0.7623487,0.362558 1.2173026,0.481929 1.8547971,0.48666 0.2733129,0.002 0.4307792,-0.01277 0.6021144,-0.05659 z m 3.750928,-1.809462 c 0.383299,-0.04135 0.845781,-0.151809 1.22261,-0.292017 0.59421,-0.221088 1.328913,-0.644572 1.38923,-0.800753 0.01792,-0.04639 0.08719,-0.297585 0.153942,-0.558207 0.104897,-0.409555 0.127402,-0.559106 0.16584,-1.102041 0.104829,-1.480709 0.248566,-1.979584 0.702753,-2.439069 0.160616,-0.162489 0.249701,-0.227984 0.345011,-0.253648 0.103044,-0.02775 0.131795,-0.05105 0.145201,-0.117684 0.08607,-0.427831 0.2391,-0.635259 0.53306,-0.722555 0.205218,-0.06094 0.335729,-0.06195 0.607984,-0.0047 0.748016,0.15735 1.592123,0.688393 1.683864,1.05935 0.019,0.07683 0.02658,0.188795 0.01684,0.248805 -0.01727,0.106419 -0.015,0.109426 0.09196,0.121913 0.131694,0.01537 0.14227,-0.0041 0.141358,-0.260366 -4.29e-4,-0.120321 -0.02224,-0.23635 -0.06013,-0.31983 -0.07293,-0.16069 -0.318643,-0.410174 -0.575134,-0.58397 -0.210939,-0.14293 -0.657352,-0.382583 -0.762106,-0.409131 -0.06225,-0.01578 -0.0643,-0.0252 -0.03273,-0.150443 0.05748,-0.228028 0.04536,-1.074099 -0.01967,-1.373408 -0.209611,-0.96469 -0.735034,-1.936027 -1.466926,-2.711875 -0.196834,-0.208655 -0.234035,-0.235769 -0.275861,-0.201057 -0.07453,0.06185 -0.01881,0.16505 0.234485,0.4343 0.391564,0.416234 0.787833,1.086826 0.983936,1.665078 0.124424,0.366892 0.199303,0.804206 0.199303,1.163987 0,0.463644 -0.122244,1.025178 -0.218084,1.001779 -0.0226,-0.0055 -0.131026,-0.01757 -0.240946,-0.02679 l -0.199853,-0.01675 -0.07056,-0.322543 c -0.181745,-0.830853 -0.440564,-1.50921 -1.018628,-2.6698 -0.719745,-1.445044 -1.29854,-2.9016951 -1.666421,-4.1938771 -0.04554,-0.159949 -0.08539,-0.2939511 -0.08857,-0.2977819 -0.0032,-0.00383 -0.09448,0.079405 -0.20289,0.184969 -0.226763,0.2208034 -0.438246,0.3499381 -0.763581,0.4662542 -0.126199,0.045119 -0.342902,0.1501635 -0.481561,0.2334312 -0.564137,0.338775 -0.93019,0.4610091 -1.374947,0.4591289 C 11.126168,8.6518708 10.952443,8.6167482 10.758984,8.5180531 10.635005,8.4548033 10.610187,8.4361723 10.176663,8.0808952 9.8826296,7.8399321 9.6158518,7.652648 9.5955553,7.6729445 9.5874348,7.681065 9.5600589,7.8452195 9.5347205,8.0377322 9.3964863,9.0879823 9.0493269,10.067193 8.0105974,12.336735 7.833362,12.72398 7.6374761,13.177674 7.5752953,13.344944 7.3535041,13.941576 7.1727617,14.778288 7.1053621,15.520408 l -0.022242,0.244898 -0.098498,-0.168367 C 6.705981,15.120643 6.5925311,14.644601 6.6198489,14.066327 c 0.032662,-0.691394 0.1992269,-1.227948 0.6879789,-2.216176 0.1906476,-0.385479 0.3548667,-0.742043 0.3649311,-0.792366 0.093353,-0.466763 -0.8836853,1.312421 -1.1510024,2.095974 -0.2017179,0.59127 -0.2616906,0.920485 -0.2610432,1.432976 6.735e-4,0.531664 0.046002,0.741612 0.2511619,1.163265 0.1953144,0.401419 0.5578497,0.766189 1.1392775,1.1463 0.5130362,0.3354 0.8590562,0.602725 1.1878978,0.917737 0.7364712,0.705497 1.0243203,1.445814 0.7040072,1.81063 -0.1285595,0.146422 -0.2351192,0.195859 -0.4692985,0.217727 -0.1089643,0.01018 -0.1981167,0.02381 -0.1981167,0.0303 0,0.0065 0.1147666,0.152585 0.2550365,0.324655 0.1402702,0.17207 0.2941463,0.372179 0.3419473,0.444687 0.2047864,0.310633 1.1596267,0.715489 1.8826077,0.798234 0.332069,0.038 0.634584,0.03867 0.973146,0.0022 z M 11.946129,8.2841177 c 0.243619,-0.085773 0.619565,-0.2770305 0.843606,-0.4291736 0.102572,-0.069655 0.329497,-0.195116 0.504279,-0.278802 0.627157,-0.300284 0.969384,-0.6630967 0.969384,-1.0276968 0,-0.1336022 -0.05682,-0.2836674 -0.0882,-0.232909 -0.01733,0.028034 -0.03887,0.020832 -0.08243,-0.02756 C 13.977936,6.1603996 13.775635,6.045653 13.430126,5.9121165 13.026008,5.7559286 12.838348,5.6644546 12.581576,5.4984946 12.193429,5.247623 11.776868,5.1376506 11.325513,5.1668927 10.905042,5.1941336 10.598723,5.3401965 10.282324,5.6643196 10.190537,5.7583476 9.9412015,5.9587944 9.7282453,6.1097568 9.3070621,6.4083294 9.242481,6.490192 9.2436617,6.7240142 c 0.00146,0.2887922 0.2222501,0.5759029 0.6806853,0.8851423 0.151022,0.101873 0.352372,0.2498556 0.447443,0.3288499 0.246853,0.2051097 0.479684,0.3478647 0.643031,0.3942594 0.202538,0.057526 0.704935,0.031552 0.931308,-0.048148 z M 9.8569401,5.8754801 c 0.05799,-0.043231 0.1260138,-0.090428 0.1511629,-0.1048818 0.03901,-0.02242 0.03616,-0.036728 -0.019378,-0.097419 C 9.7509051,5.413316 9.6914864,4.8639958 9.868521,4.561909 9.914179,4.484 9.9849691,4.4075452 10.025833,4.3920086 c 0.231956,-0.088189 0.472034,0.2705755 0.482835,0.7215312 0.0026,0.1086178 0.0089,0.1975313 0.01389,0.1975858 0.005,6.12e-5 0.118312,-0.051559 0.251721,-0.114697 L 11.016838,5.0816327 11.01767,4.848566 C 11.019195,4.4207152 10.917327,4.0830885 10.695997,3.7824328 10.54027,3.570892 10.38375,3.4772216 10.144789,3.4525586 10.016689,3.4393378 9.9538526,3.4499535 9.8432365,3.5035013 9.3108752,3.761213 9.0981066,4.8872287 9.4518011,5.5750567 c 0.077687,0.1510767 0.2432121,0.3790249 0.2752304,0.3790249 0.01346,0 0.07192,-0.035371 0.1299101,-0.078602 z M 13.95622,5.8331149 C 14.229255,5.4496727 14.314947,4.8340482 14.161997,4.3547773 13.874377,3.4535115 13.022971,3.1170046 12.358444,3.6419467 12.037123,3.895774 11.865145,4.3034357 11.862174,4.8183248 l -0.0018,0.3183248 0.254882,0.085964 c 0.140185,0.04728 0.281384,0.094376 0.313776,0.1046565 0.05455,0.017315 0.05889,0.00172 0.05889,-0.2115701 0,-0.4009876 0.211205,-0.8297277 0.447088,-0.9075762 0.144618,-0.047728 0.300551,0.032308 0.415256,0.2131393 0.239826,0.3780857 0.235488,0.9018373 -0.0096,1.1546678 -0.06296,0.06496 -0.08323,0.1029285 -0.05521,0.1034256 0.02435,4.317e-4 0.161363,0.054456 0.304475,0.1200542 0.143112,0.065598 0.269598,0.1203462 0.281079,0.1216635 0.01148,0.00132 0.04983,-0.038265 0.08521,-0.087959 z"
     id="path3544" />
</svg>
