<?xml version="1.0" encoding="UTF-8" standalone="no"?>
<svg
   xmlns:dc="http://purl.org/dc/elements/1.1/"
   xmlns:cc="http://creativecommons.org/ns#"
   xmlns:rdf="http://www.w3.org/1999/02/22-rdf-syntax-ns#"
   xmlns:svg="http://www.w3.org/2000/svg"
   xmlns="http://www.w3.org/2000/svg"
   xmlns:sodipodi="http://sodipodi.sourceforge.net/DTD/sodipodi-0.dtd"
   xmlns:inkscape="http://www.inkscape.org/namespaces/inkscape"
   role="img"
   viewBox="0 0 24 24"
   version="1.1"
   id="svg968"
   sodipodi:docname="neovim.svg"
   inkscape:version="1.0.2 (e86c870879, 2021-01-15)">
  <metadata
     id="metadata974">
    <rdf:RDF>
      <cc:Work
         rdf:about="">
        <dc:format>image/svg+xml</dc:format>
        <dc:type
           rdf:resource="http://purl.org/dc/dcmitype/StillImage" />
        <dc:title>Neovim icon</dc:title>
      </cc:Work>
    </rdf:RDF>
  </metadata>
  <defs
     id="defs972" />
  <sodipodi:namedview
     pagecolor="#ffffff"
     bordercolor="#666666"
     borderopacity="1"
     objecttolerance="10"
     gridtolerance="10"
     guidetolerance="10"
     inkscape:pageopacity="0"
     inkscape:pageshadow="2"
     inkscape:window-width="1220"
     inkscape:window-height="1296"
     id="namedview970"
     showgrid="false"
     inkscape:zoom="20.083333"
     inkscape:cx="12"
     inkscape:cy="11.775934"
     inkscape:window-x="1292"
     inkscape:window-y="96"
     inkscape:window-maximized="0"
     inkscape:current-layer="svg968" />
  <title
     id="title964">Neovim icon</title>
  <path
     d="M2.214 4.954v13.615L7.655 24V10.314L3.312 3.845 2.214 4.954zm4.999 17.98l-4.557-4.548V5.136l.59-.596 3.967 5.908v12.485zm14.573-4.457l-.862.937-4.24-6.376V0l5.068 5.092.034 13.385zM7.431.001l12.998 19.835-3.637 3.637L3.787 3.683 7.43 0z"
     id="path966" />
  <path
     style="fill:#3b4252;stroke-width:0.0497925"
     d="M 10.317892,13.564698 3.8344627,3.6988643 5.6092686,1.8867765 C 6.5854118,0.89012828 7.397554,0.07482502 7.4140289,0.07499152 7.4494017,0.07534899 20.334039,19.726807 20.353611,19.810251 c 0.0073,0.03133 -0.788909,0.858714 -1.769464,1.838625 l -1.782827,1.781656 z"
     id="path976" />
  <path
     style="fill:#3b4252;stroke-width:0.0497925"
     d="m 18.827095,16.206557 -2.096042,-3.160914 -3.81e-4,-6.4729671 -3.82e-4,-6.47296698 2.496981,2.49698098 2.496981,2.496981 0.02014,6.6896791 0.02014,6.689679 -0.420695,0.447221 -0.420694,0.44722 z"
     id="path978" />
  <path
     style="fill:#3b4252;stroke-width:0.0497925"
     d="M 4.9170124,21.216783 2.2406639,18.563157 V 11.770356 4.9775548 l 0.537199,-0.5355333 0.537199,-0.5355333 2.1507821,3.2002829 2.1507821,3.2002829 8.166e-4,6.784232 c 4.481e-4,3.731328 -0.00479,6.783083 -0.011633,6.781678 -0.00685,-0.0014 -1.216805,-1.196686 -2.6887973,-2.656181 z M 7.219917,16.666294 V 10.403127 L 5.2509321,7.4690929 C 4.1679904,5.8553744 3.2746567,4.5277687 3.265746,4.5188581 3.2568354,4.5099474 3.1125966,4.643501 2.9452155,4.8156438 l -0.3043294,0.3129869 -9.41e-4,6.6470993 -9.41e-4,6.647101 2.2529069,2.253314 c 1.2390987,1.239324 2.269804,2.253316 2.2904565,2.253316 0.020652,0 0.037549,-2.818425 0.037549,-6.263167 z"
     id="path980" />
</svg>
