<?xml version="1.0" encoding="UTF-8" standalone="no"?>
<svg
   xmlns:dc="http://purl.org/dc/elements/1.1/"
   xmlns:cc="http://creativecommons.org/ns#"
   xmlns:rdf="http://www.w3.org/1999/02/22-rdf-syntax-ns#"
   xmlns:svg="http://www.w3.org/2000/svg"
   xmlns="http://www.w3.org/2000/svg"
   role="img"
   viewBox="0 0 24 24"
   version="1.1"
   id="svg981">
  <metadata
     id="metadata987">
    <rdf:RDF>
      <cc:Work
         rdf:about="">
        <dc:format>image/svg+xml</dc:format>
        <dc:type
           rdf:resource="http://purl.org/dc/dcmitype/StillImage" />
        <dc:title>Neovim icon</dc:title>
      </cc:Work>
    </rdf:RDF>
  </metadata>
  <defs
     id="defs985" />
  <title
     id="title977">Neovim icon</title>
  <path
     d="M2.214 4.954v13.615L7.655 24V10.314L3.312 3.845 2.214 4.954zm4.999 17.98l-4.557-4.548V5.136l.59-.596 3.967 5.908v12.485zm14.573-4.457l-.862.937-4.24-6.376V0l5.068 5.092.034 13.385zM7.431.001l12.998 19.835-3.637 3.637L3.787 3.683 7.43 0z"
     id="path979" />
  <path
     style="fill:#57a143;fill-opacity:1;stroke-width:0.0441942"
     d="m 18.815702,16.195239 -2.096948,-3.159372 0.0021,-6.4860066 0.0021,-6.48600677 2.487964,2.51645427 2.487965,2.5164543 0.02897,1.3505359 c 0.01593,0.7427949 0.029,3.7514609 0.02905,6.6859249 l 7.7e-5,5.335388 -0.40546,0.443 c -0.223004,0.24365 -0.412958,0.442999 -0.42212,0.442999 -0.0092,0 -0.960286,-1.421717 -2.113607,-3.159371 z"
     id="path1586" />
  <path
     style="fill:#57a143;fill-opacity:1;stroke-width:0.0441942"
     d="M 10.314374,13.568433 C 6.7555048,8.1514824 3.8459952,3.7063697 3.8487971,3.6904049 3.8515989,3.6744401 4.6575243,2.847109 5.6397422,1.8518915 L 7.4255932,0.04240497 13.832254,9.8200419 c 3.523663,5.3777001 6.439401,9.8279961 6.479416,9.8895471 l 0.07275,0.11191 -1.799689,1.797968 -1.79969,1.797968 z"
     id="path1588" />
  <path
     style="fill:#57a143;fill-opacity:1;stroke-width:0.0441942"
     d="M 4.9078607,21.221817 2.2230647,18.536749 V 11.752415 4.9680806 L 2.7657033,4.4267448 3.3083419,3.8854091 5.4616874,7.0955949 7.6150328,10.305781 7.603845,17.106333 7.5926568,23.906885 Z M 7.2170063,16.668296 V 10.402253 L 5.239317,7.4564883 3.2616278,4.5107237 2.94122,4.8273476 2.6208123,5.1439715 v 6.6372995 6.6373 l 2.2836245,2.257884 c 1.2559936,1.241836 2.2901374,2.257884 2.2980973,2.257884 0.00796,0 0.014472,-2.81972 0.014472,-6.266043 z"
     id="path1590" />
</svg>
