<?xml version="1.0" encoding="UTF-8" standalone="no"?>
<svg
   xmlns:dc="http://purl.org/dc/elements/1.1/"
   xmlns:cc="http://creativecommons.org/ns#"
   xmlns:rdf="http://www.w3.org/1999/02/22-rdf-syntax-ns#"
   xmlns:svg="http://www.w3.org/2000/svg"
   xmlns="http://www.w3.org/2000/svg"
   role="img"
   viewBox="0 0 24 24"
   version="1.1"
   id="svg78">
  <metadata
     id="metadata84">
    <rdf:RDF>
      <cc:Work
         rdf:about="">
        <dc:format>image/svg+xml</dc:format>
        <dc:type
           rdf:resource="http://purl.org/dc/dcmitype/StillImage" />
        <dc:title>PyCharm icon</dc:title>
      </cc:Work>
    </rdf:RDF>
  </metadata>
  <defs
     id="defs82" />
  <title
     id="title74">PyCharm icon</title>
  <path
     d="M7.833 6.666v-.055c0-1-.667-1.5-1.778-1.5H4.389v3.055h1.723c1.111 0 1.721-.666 1.721-1.5zM0 0v24h24V0H0zm2.223 3.167h4c2.389 0 3.833 1.389 3.833 3.445v.055c0 2.278-1.778 3.5-4.001 3.5H4.389v2.945H2.223V3.167zM11.277 21h-9v-1.5h9V21zm4.779-7.777c-2.944.055-5.111-2.223-5.111-5.057C10.944 5.333 13.056 3 16.111 3c1.889 0 3 .611 3.944 1.556l-1.389 1.61c-.778-.722-1.556-1.111-2.556-1.111-1.658 0-2.873 1.375-2.887 3.084.014 1.709 1.174 3.083 2.887 3.083 1.111 0 1.833-.445 2.61-1.167l1.39 1.389c-.999 1.112-2.166 1.779-4.054 1.779z"
     id="path76" />
  <path
     style="fill:none;stroke-width:0.0232784"
     d="M 0.01163919,12 V 0.01163919 H 12 23.988361 V 12 23.988361 H 12 0.01163919 Z M 11.278371,20.252182 V 19.495635 H 6.7740058 2.2696411 v 0.756547 0.756547 h 4.5043647 4.5043652 z m 5.370216,-7.04349 c 1.294129,-0.108809 2.250697,-0.545872 3.161306,-1.444423 l 0.325897,-0.321583 -0.702596,-0.703232 -0.702597,-0.703232 -0.06901,0.05657 c -0.03795,0.03111 -0.166984,0.139662 -0.286734,0.241215 -0.51983,0.440837 -1.039576,0.703542 -1.626068,0.821895 -0.147468,0.02976 -0.310522,0.0396 -0.640156,0.03865 -0.41754,-0.0012 -0.45747,-0.0053 -0.713591,-0.07296 -0.306975,-0.08111 -0.596067,-0.208688 -0.841655,-0.371436 -0.206581,-0.136899 -0.538617,-0.453266 -0.689902,-0.657344 -0.42903,-0.5787454 -0.663139,-1.3772112 -0.620952,-2.1178503 0.08348,-1.4656509 1.049524,-2.625593 2.388894,-2.8683934 0.273213,-0.049528 0.844508,-0.037883 1.133387,0.023102 0.444711,0.093883 0.855142,0.2682195 1.238557,0.5260947 0.201897,0.1357899 0.503536,0.3737757 0.560035,0.441853 0.0908,0.1094046 0.07505,0.1234881 0.79539,-0.7114375 0.376135,-0.4359687 0.686944,-0.8058022 0.690687,-0.8218526 0.008,-0.034306 -0.247532,-0.2801189 -0.502354,-0.4832506 C 18.818924,3.5005932 18.00906,3.1699195 16.981568,3.0335411 16.632165,2.9871651 15.61028,2.9944731 15.283077,3.0456881 14.193015,3.216309 13.263066,3.6633182 12.51482,4.3763385 c -0.854636,0.8144017 -1.368882,1.8509586 -1.541742,3.1076624 -0.0445,0.3234767 -0.0387,1.0911466 0.01072,1.4199806 0.174841,1.1633625 0.650585,2.1281195 1.434736,2.9094875 0.776483,0.773728 1.857732,1.281094 2.968464,1.392925 0.301099,0.03031 0.915089,0.03144 1.261584,0.0023 z M 4.4112512,11.653395 V 10.189429 L 5.499515,10.177671 C 6.6996473,10.164705 6.8517577,10.151313 7.4021999,10.010154 8.118964,9.8263423 8.6384057,9.5407251 9.1167901,9.067379 9.7579621,8.4329596 10.067513,7.6445617 10.067513,6.6459748 10.067513,5.0487624 9.2419114,3.8706145 7.7866149,3.391095 7.5324598,3.3073511 7.3579817,3.26539 7.0300679,3.2091492 6.8236288,3.1737428 6.5384487,3.1682335 4.5101843,3.1604692 L 2.2230844,3.151714 v 4.9828239 4.9828241 h 1.0940834 1.0940834 z"
     id="path86" />
  <path
     style="fill:none;stroke-width:0.0232784"
     d="m 2.2230844,8.1345435 v -4.95954 l 2.2987391,0.00933 c 2.5382698,0.010302 2.4504526,0.00549 3.0417397,0.1666219 C 9.1819386,3.7919738 10.113242,5.0938271 10.037281,6.8089231 10.012651,7.3649481 9.915738,7.7669246 9.6977273,8.2172645 9.383134,8.867113 8.9065904,9.3362755 8.2043292,9.6875315 7.7987383,9.8903995 7.3048765,10.035946 6.7507274,10.115923 c -0.1084488,0.01565 -0.6407425,0.03163 -1.2744907,0.03827 l -1.0882639,0.01139 v 1.46425 1.46425 H 3.3055286 2.2230844 Z M 6.6602589,8.1173529 C 7.2687278,7.9589259 7.6577028,7.5952714 7.7973567,7.0542751 7.8447182,6.870804 7.8446875,6.3834909 7.7973102,6.1824605 7.6781359,5.67691 7.3212491,5.3341459 6.7478912,5.1745767 6.5735269,5.12605 6.5109372,5.1231234 5.4762367,5.1151155 L 4.3879728,5.106693 v 1.5396989 1.539699 L 5.4296799,8.17631 C 6.3964523,8.16723 6.4849734,8.162992 6.6602589,8.1173529 Z"
     id="path88" />
  <path
     style="fill:#282828;stroke-width:0.0232784;fill-opacity:1"
     d="M 4.4112512,6.6465726 V 5.1302999 l 1.0649855,0.00807 c 1.0109083,0.00766 1.0742389,0.010654 1.2472218,0.059002 0.7418369,0.2073411 1.0864348,0.6565555 1.0864348,1.4162662 0,0.3293049 -0.026471,0.458527 -0.1449141,0.7074124 C 7.4870211,7.6949924 7.1371039,7.9633166 6.657614,8.093517 6.4825787,8.1410461 6.4094828,8.1446486 5.4413191,8.1534651 l -1.0300679,0.00938 z"
     id="path90" />
  <path
     style="fill:#3b4252;fill-opacity:1;stroke-width:0.0232784"
     d="M 0,12 V 0.01163919 H 12 24 V 12 23.988361 H 12 0 Z m 11.29001,8.252182 V 19.495635 H 6.7740058 2.2580019 v 0.756547 0.756547 H 6.7740058 11.29001 Z m 5.743873,-7.085758 c 0.980706,-0.149159 1.761952,-0.502982 2.485031,-1.125457 0.263135,-0.226524 0.593598,-0.555816 0.593598,-0.591493 0,-0.01105 -0.312983,-0.332938 -0.695517,-0.715313 l -0.695518,-0.695227 -0.220553,0.191311 c -0.760312,0.659507 -1.40304,0.936181 -2.252621,0.969683 -0.842115,0.03321 -1.547973,-0.232636 -2.106942,-0.793526 -0.454906,-0.4564706 -0.736312,-1.0170927 -0.853465,-1.7002914 -0.06098,-0.3556402 -0.04961,-0.9514857 0.02428,-1.2716874 0.281375,-1.2193688 1.114888,-2.0733784 2.261053,-2.3166551 0.269933,-0.057294 0.834083,-0.056146 1.14064,0.00232 0.617561,0.1177816 1.149022,0.3838792 1.717062,0.8597168 l 0.238886,0.2001104 0.07782,-0.087048 c 0.274057,-0.3065584 1.318317,-1.5294776 1.318317,-1.5438643 0,-0.024243 -0.456865,-0.4248978 -0.651308,-0.5711747 -0.690442,-0.5194088 -1.480556,-0.8246758 -2.444715,-0.944534 -0.374003,-0.046494 -1.343338,-0.039528 -1.676043,0.012044 -0.904704,0.1402378 -1.738101,0.4879855 -2.397672,1.0004655 -0.883767,0.6866789 -1.511691,1.6525579 -1.791492,2.7556933 -0.105999,0.417908 -0.142617,0.6940444 -0.157055,1.1843493 -0.02037,0.6919211 0.04481,1.1878405 0.236936,1.8027077 0.437328,1.3995669 1.502949,2.5523769 2.852251,3.0856199 0.409645,0.161891 0.910547,0.284037 1.373424,0.334914 0.32858,0.03611 1.267929,0.01143 1.623602,-0.04267 z m -12.634271,-1.5156 v -1.466537 h 0.8928368 c 0.9554642,0 1.3402366,-0.02052 1.7533515,-0.09349 C 8.4338994,9.8456026 9.4607455,9.0479004 9.8656253,7.900225 10.017765,7.4689695 10.044696,7.2777034 10.043868,6.6343356 10.043207,6.1212009 10.036996,6.0243278 9.9913432,5.8152068 9.7116384,4.5339694 8.8265657,3.6410225 7.5070668,3.3088286 6.9434209,3.1669264 6.9912936,3.169291 4.4985451,3.1602236 L 2.2114452,3.1519044 V 8.1346331 13.117362 H 3.3055286 4.399612 Z"
     id="path925" />
  <path
     style="fill:#3b4252;fill-opacity:1;stroke-width:0.0232784"
     d="M 4.4228904,6.6449039 V 5.1362845 l 0.8322017,0.010233 c 1.2945978,0.015919 1.3398625,0.018553 1.5540624,0.090429 0.4993932,0.1675755 0.7774839,0.4250136 0.9124316,0.8446689 0.078127,0.2429569 0.099291,0.6875214 0.043907,0.9222797 C 7.6850111,7.3450345 7.4588499,7.665274 7.1614618,7.8591923 6.9877953,7.9724353 6.6987456,8.0841445 6.5119844,8.1101965 c -0.079942,0.011151 -0.582692,0.025462 -1.1172215,0.031801 l -0.971872,0.011526 z"
     id="path927" />
</svg>
