<?xml version="1.0" encoding="UTF-8" standalone="no"?>
<svg
   xmlns:dc="http://purl.org/dc/elements/1.1/"
   xmlns:cc="http://creativecommons.org/ns#"
   xmlns:rdf="http://www.w3.org/1999/02/22-rdf-syntax-ns#"
   xmlns:svg="http://www.w3.org/2000/svg"
   xmlns="http://www.w3.org/2000/svg"
   xmlns:sodipodi="http://sodipodi.sourceforge.net/DTD/sodipodi-0.dtd"
   xmlns:inkscape="http://www.inkscape.org/namespaces/inkscape"
   role="img"
   viewBox="0 0 24 24"
   version="1.1"
   id="svg885"
   sodipodi:docname="python.svg"
   inkscape:version="1.0.2 (e86c870879, 2021-01-15)">
  <metadata
     id="metadata891">
    <rdf:RDF>
      <cc:Work
         rdf:about="">
        <dc:format>image/svg+xml</dc:format>
        <dc:type
           rdf:resource="http://purl.org/dc/dcmitype/StillImage" />
        <dc:title>Python icon</dc:title>
      </cc:Work>
    </rdf:RDF>
  </metadata>
  <defs
     id="defs889" />
  <sodipodi:namedview
     pagecolor="#ffffff"
     bordercolor="#666666"
     borderopacity="1"
     objecttolerance="10"
     gridtolerance="10"
     guidetolerance="10"
     inkscape:pageopacity="0"
     inkscape:pageshadow="2"
     inkscape:window-width="1220"
     inkscape:window-height="1296"
     id="namedview887"
     showgrid="false"
     inkscape:zoom="20.083333"
     inkscape:cx="12"
     inkscape:cy="11.775934"
     inkscape:window-x="1292"
     inkscape:window-y="96"
     inkscape:window-maximized="0"
     inkscape:current-layer="svg885" />
  <title
     id="title881">Python icon</title>
  <path
     d="M14.25.18l.9.2.73.26.59.3.45.32.34.34.25.34.16.33.1.3.04.26.02.2-.01.13V8.5l-.05.63-.13.55-.21.46-.26.38-.3.31-.33.25-.35.19-.35.14-.33.1-.3.07-.26.04-.21.02H8.77l-.69.05-.59.14-.5.22-.41.27-.33.32-.27.35-.2.36-.15.37-.1.35-.07.32-.04.27-.02.21v3.06H3.17l-.21-.03-.28-.07-.32-.12-.35-.18-.36-.26-.36-.36-.35-.46-.32-.59-.28-.73-.21-.88-.14-1.05-.05-1.23.06-1.22.16-1.04.24-.87.32-.71.36-.57.4-.44.42-.33.42-.24.4-.16.36-.1.32-.05.24-.01h.16l.06.01h8.16v-.83H6.18l-.01-2.75-.02-.37.05-.34.11-.31.17-.28.25-.26.31-.23.38-.2.44-.18.51-.15.58-.12.64-.1.71-.06.77-.04.84-.02 1.27.05zm-6.3 1.98l-.23.33-.08.41.08.41.23.34.33.22.41.09.41-.09.33-.22.23-.34.08-.41-.08-.41-.23-.33-.33-.22-.41-.09-.41.09zm13.09 3.95l.28.06.32.12.35.18.36.27.36.35.35.47.32.59.28.73.21.88.14 1.04.05 1.23-.06 1.23-.16 1.04-.24.86-.32.71-.36.57-.4.45-.42.33-.42.24-.4.16-.36.09-.32.05-.24.02-.16-.01h-8.22v.82h5.84l.01 2.76.02.36-.05.34-.11.31-.17.29-.25.25-.31.24-.38.2-.44.17-.51.15-.58.13-.64.09-.71.07-.77.04-.84.01-1.27-.04-1.07-.14-.9-.2-.73-.25-.59-.3-.45-.33-.34-.34-.25-.34-.16-.33-.1-.3-.04-.25-.02-.2.01-.13v-5.34l.05-.64.13-.54.21-.46.26-.38.3-.32.33-.24.35-.2.35-.14.33-.1.3-.06.26-.04.21-.02.13-.01h5.84l.69-.05.59-.14.5-.21.41-.28.33-.32.27-.35.2-.36.15-.36.1-.35.07-.32.04-.28.02-.21V6.07h2.09l.14.01zm-6.47 14.25l-.23.33-.08.41.08.41.23.33.33.23.41.08.41-.08.33-.23.23-.33.08-.41-.08-.41-.23-.33-.33-.23-.41-.08-.41.08z"
     id="path883" />
  <path
     style="fill:#3b4252;stroke-width:0.0497925"
     d="M 2.6632832,17.782804 C 0.91607144,17.216578 -0.00988898,15.212346 -0.008388,12 -0.00785478,10.858847 0.08749341,10.053503 0.31879331,9.2365145 0.75501978,7.6956921 1.6979977,6.6847275 3.012577,6.3485149 3.387107,6.252726 3.5652857,6.2489627 7.7258071,6.2489627 H 12.049793 V 5.8257261 5.4024896 H 9.1426491 6.2355052 L 6.1978561,3.8713693 C 6.1576118,2.2347159 6.1768685,1.9976432 6.3836898,1.5835239 6.5957607,1.1588926 7.2232795,0.73296319 8.0165975,0.47518437 9.5505012,-0.02323845 12.862796,-0.11137941 14.6639,0.29829805 16.260379,0.66143154 17.250425,1.3352173 17.645127,2.3272017 l 0.133492,0.3355004 -0.0019,3.13711 c -0.0021,3.4504546 -0.0095,3.5510042 -0.304528,4.1692262 -0.231773,0.4856367 -0.71115,0.9657527 -1.209496,1.2113607 -0.881064,0.434229 -0.642857,0.411508 -4.685893,0.446951 -3.2169271,0.0282 -3.6157394,0.04043 -3.8838169,0.119051 -1.1258117,0.330195 -1.8512784,1.081225 -2.1764679,2.253159 -0.099772,0.359561 -0.1098309,0.529467 -0.1270327,2.145668 l -0.018682,1.755187 -1.1791578,-0.0022 C 3.1044152,17.896138 2.9852129,17.887136 2.6632812,17.782806 Z M 9.2643037,3.7882281 C 9.3717884,3.717098 9.520918,3.5664407 9.5957019,3.453434 9.7119326,3.2777982 9.7316256,3.1965315 9.7313442,2.8936931 9.7310455,2.5936002 9.7110503,2.5101474 9.600474,2.3480206 9.1498272,1.6872808 8.2276705,1.6856839 7.7797434,2.3448677 7.6000222,2.6093511 7.590725,3.1494387 7.7611464,3.4251864 7.8924667,3.6376671 8.1430407,3.8445152 8.3494596,3.9108377 8.5991203,3.9910539 9.0489042,3.9307728 9.2643037,3.7882282 Z"
     id="path893" />
  <path
     style="fill:#3b4252;stroke-width:0.0497925"
     d="M 11.078838,23.943164 C 8.407682,23.739319 6.8354513,22.966437 6.3268901,21.607185 6.2216334,21.325861 6.2200729,21.274481 6.2229619,18.185269 c 0.00323,-3.453884 0.00764,-3.512315 0.3147519,-4.168671 0.284999,-0.609101 0.9489417,-1.161527 1.7029501,-1.416921 0.5397803,-0.182832 0.6925747,-0.190987 4.2323651,-0.225906 2.926621,-0.02887 3.582419,-0.04787 3.809129,-0.110382 1.108424,-0.305608 1.843946,-1.052518 2.196191,-2.230194 0.104648,-0.3498754 0.112962,-0.4857876 0.131733,-2.153527 l 0.02004,-1.7800829 h 1.13091 c 0.852787,0 1.203896,0.018741 1.42768,0.076205 1.454472,0.3734832 2.417571,1.8439817 2.738372,4.1810559 0.122613,0.89325 0.111394,2.54882 -0.02278,3.360996 -0.326068,1.973808 -1.038811,3.133298 -2.286222,3.719231 -0.675836,0.317453 -0.585193,0.312146 -5.348374,0.3131 l -4.319503,8.64e-4 v 0.423237 0.423236 h 2.907144 2.907144 l 0.03765,1.531121 c 0.04024,1.636653 0.02099,1.873726 -0.185834,2.287845 -0.498975,0.999102 -2.553079,1.579207 -5.489334,1.550258 -0.466932,-0.0046 -0.938594,-0.01521 -1.048138,-0.02357 z m 4.504956,-1.810384 c 0.138226,0 0.490694,-0.263131 0.633008,-0.472563 0.110662,-0.162854 0.131865,-0.249631 0.134508,-0.55048 0.0027,-0.308757 -0.01531,-0.385028 -0.133018,-0.562894 -0.07489,-0.113159 -0.229555,-0.267554 -0.343712,-0.343098 -0.177958,-0.117768 -0.258298,-0.137355 -0.563377,-0.137355 -0.305078,0 -0.385419,0.01959 -0.563377,0.137355 -0.114156,0.07554 -0.268744,0.229814 -0.343528,0.342821 -0.11643,0.175938 -0.135846,0.256382 -0.135101,0.559741 7.41e-4,0.301237 0.02093,0.384091 0.134877,0.553444 0.227565,0.338219 0.623032,0.543959 0.950698,0.494595 0.07873,-0.01186 0.181794,-0.02157 0.229022,-0.02157 z"
     id="path895" />
</svg>
